<svg width="246" height="58" viewBox="0 0 246 58" fill="none" xmlns="http://www.w3.org/2000/svg">
<g opacity="0.9">
<path d="M38 51.6L36.8 50.6C32.8 46.8 30 44.4 30 41.4C30 39 32 37 34.4 37C35.8 37 37.2 37.6 38 38.6C38.8 37.6 40.2 37 41.6 37C44 37 46 38.8 46 41.4C46 44.4 43.2 46.8 39.2 50.6L38 51.6Z" fill="#50B2C0"/>
<path d="M36 9C38.2 9 40 10.8 40 13V31.16L38 31L36 31.16V13H26V29L21 24.5L16 29V13H12V45H26.16C26.4 46.44 26.9 47.78 27.6 49H12C9.8 49 8 47.2 8 45V13C8 10.8 9.8 9 12 9H36Z" fill="#8381D9"/>
<path d="M63.0139 41V15.62H66.8659L76.4419 33.296H75.2899L84.8299 15.62H88.6099V41H84.4339V22.46H85.2259L77.1619 37.148H74.4619L66.3259 22.424H67.1899V41H63.0139ZM101.792 41.36C99.9678 41.36 98.3838 40.988 97.0398 40.244C95.6958 39.5 94.6518 38.444 93.9078 37.076C93.1638 35.684 92.7918 34.052 92.7918 32.18C92.7918 30.308 93.1638 28.688 93.9078 27.32C94.6518 25.952 95.6958 24.896 97.0398 24.152C98.3838 23.408 99.9678 23.036 101.792 23.036C103.616 23.036 105.2 23.408 106.544 24.152C107.888 24.896 108.932 25.952 109.676 27.32C110.42 28.688 110.792 30.308 110.792 32.18C110.792 34.052 110.42 35.684 109.676 37.076C108.932 38.444 107.888 39.5 106.544 40.244C105.2 40.988 103.616 41.36 101.792 41.36ZM101.792 37.94C103.136 37.94 104.216 37.46 105.032 36.5C105.848 35.516 106.256 34.076 106.256 32.18C106.256 30.26 105.848 28.832 105.032 27.896C104.216 26.936 103.136 26.456 101.792 26.456C100.448 26.456 99.3678 26.936 98.5518 27.896C97.7358 28.832 97.3278 30.26 97.3278 32.18C97.3278 34.076 97.7358 35.516 98.5518 36.5C99.3678 37.46 100.448 37.94 101.792 37.94ZM119.338 41L111.706 23.396H116.494L121.93 37.04H120.85L126.466 23.396H130.966L123.226 41H119.338ZM132.851 19.616V15.224H137.891V19.616H132.851ZM133.139 41V23.396H137.639V41H133.139ZM150.991 41.36C148.999 41.36 147.283 40.988 145.843 40.244C144.403 39.5 143.287 38.444 142.495 37.076C141.727 35.708 141.343 34.088 141.343 32.216C141.343 30.392 141.715 28.796 142.459 27.428C143.227 26.06 144.271 24.992 145.591 24.224C146.935 23.432 148.459 23.036 150.163 23.036C151.843 23.036 153.283 23.396 154.483 24.116C155.683 24.836 156.607 25.856 157.255 27.176C157.927 28.496 158.263 30.068 158.263 31.892V33.224H144.979V30.632H155.095L154.519 31.172C154.519 29.54 154.159 28.292 153.439 27.428C152.719 26.54 151.687 26.096 150.343 26.096C149.335 26.096 148.471 26.336 147.751 26.816C147.055 27.272 146.515 27.932 146.131 28.796C145.771 29.636 145.591 30.644 145.591 31.82V32.072C145.591 33.392 145.795 34.484 146.203 35.348C146.611 36.212 147.223 36.86 148.039 37.292C148.855 37.724 149.863 37.94 151.063 37.94C152.047 37.94 153.031 37.796 154.015 37.508C154.999 37.196 155.899 36.716 156.715 36.068L157.975 39.092C157.135 39.788 156.079 40.34 154.807 40.748C153.535 41.156 152.263 41.36 150.991 41.36ZM169.242 41L160.278 15.62H165.03L172.05 36.428H170.61L177.954 15.62H181.374L188.466 36.428H187.206L194.334 15.62H198.834L189.798 41H185.982L179.142 21.488H179.97L173.058 41H169.242ZM201.616 19.616V15.224H206.656V19.616H201.616ZM201.904 41V23.396H206.404V41H201.904ZM217.524 41.36C216.54 41.36 215.58 41.276 214.644 41.108C213.732 40.94 212.892 40.712 212.124 40.424C211.356 40.112 210.684 39.728 210.108 39.272L211.26 36.32C211.86 36.704 212.508 37.04 213.204 37.328C213.9 37.616 214.62 37.832 215.364 37.976C216.108 38.12 216.84 38.192 217.56 38.192C218.712 38.192 219.564 38 220.116 37.616C220.692 37.208 220.98 36.68 220.98 36.032C220.98 35.48 220.788 35.06 220.404 34.772C220.044 34.46 219.492 34.232 218.748 34.088L215.148 33.404C213.66 33.116 212.52 32.576 211.728 31.784C210.96 30.968 210.576 29.924 210.576 28.652C210.576 27.5 210.888 26.504 211.512 25.664C212.16 24.824 213.048 24.176 214.176 23.72C215.304 23.264 216.6 23.036 218.064 23.036C218.904 23.036 219.72 23.12 220.512 23.288C221.304 23.432 222.048 23.66 222.744 23.972C223.464 24.26 224.088 24.644 224.616 25.124L223.392 28.076C222.936 27.692 222.408 27.368 221.808 27.104C221.208 26.816 220.584 26.6 219.936 26.456C219.312 26.288 218.7 26.204 218.1 26.204C216.924 26.204 216.048 26.408 215.472 26.816C214.92 27.224 214.644 27.764 214.644 28.436C214.644 28.94 214.812 29.36 215.148 29.696C215.484 30.032 216 30.26 216.696 30.38L220.296 31.064C221.856 31.352 223.032 31.88 223.824 32.648C224.64 33.416 225.048 34.448 225.048 35.744C225.048 36.92 224.736 37.928 224.112 38.768C223.488 39.608 222.612 40.256 221.484 40.712C220.356 41.144 219.036 41.36 217.524 41.36ZM237.334 41.36C235.342 41.36 233.626 40.988 232.186 40.244C230.746 39.5 229.63 38.444 228.838 37.076C228.07 35.708 227.686 34.088 227.686 32.216C227.686 30.392 228.058 28.796 228.802 27.428C229.57 26.06 230.614 24.992 231.934 24.224C233.278 23.432 234.802 23.036 236.506 23.036C238.186 23.036 239.626 23.396 240.826 24.116C242.026 24.836 242.95 25.856 243.598 27.176C244.27 28.496 244.606 30.068 244.606 31.892V33.224H231.322V30.632H241.438L240.862 31.172C240.862 29.54 240.502 28.292 239.782 27.428C239.062 26.54 238.03 26.096 236.686 26.096C235.678 26.096 234.814 26.336 234.094 26.816C233.398 27.272 232.858 27.932 232.474 28.796C232.114 29.636 231.934 30.644 231.934 31.82V32.072C231.934 33.392 232.138 34.484 232.546 35.348C232.954 36.212 233.566 36.86 234.382 37.292C235.198 37.724 236.206 37.94 237.406 37.94C238.39 37.94 239.374 37.796 240.358 37.508C241.342 37.196 242.242 36.716 243.058 36.068L244.318 39.092C243.478 39.788 242.422 40.34 241.15 40.748C239.878 41.156 238.606 41.36 237.334 41.36Z" fill="url(#paint0_linear_6421_2437)"/>
</g>
<defs>
<linearGradient id="paint0_linear_6421_2437" x1="60" y1="29.5686" x2="246" y2="29.5686" gradientUnits="userSpaceOnUse">
<stop stop-color="#7FD1CC"/>
<stop offset="1" stop-color="#9694F5"/>
</linearGradient>
</defs>
</svg>
